<mxfile host="app.diagrams.net" agent="Mozilla/5.0 (Windows NT 10.0; Win64; x64) AppleWebKit/537.36 (KHTML, like Gecko) Chrome/140.0.0.0 Safari/537.36 Edg/140.0.0.0" version="28.2.5">
  <diagram name="Page-1" id="YmzYyXbvtrjzqKT1aHqx">
    <mxGraphModel dx="1876" dy="828" grid="1" gridSize="10" guides="1" tooltips="1" connect="1" arrows="1" fold="1" page="1" pageScale="1" pageWidth="850" pageHeight="1100" math="0" shadow="0">
      <root>
        <mxCell id="0" />
        <mxCell id="1" parent="0" />
        <mxCell id="vT8C434_20c2T1mdYc_d-1" value="End" style="ellipse;whiteSpace=wrap;html=1;" vertex="1" parent="1">
          <mxGeometry x="150" y="790" width="100" height="50" as="geometry" />
        </mxCell>
        <mxCell id="vT8C434_20c2T1mdYc_d-2" style="edgeStyle=orthogonalEdgeStyle;rounded=0;orthogonalLoop=1;jettySize=auto;html=1;entryX=0.5;entryY=0;entryDx=0;entryDy=0;" edge="1" parent="1" source="vT8C434_20c2T1mdYc_d-3" target="vT8C434_20c2T1mdYc_d-5">
          <mxGeometry relative="1" as="geometry" />
        </mxCell>
        <mxCell id="vT8C434_20c2T1mdYc_d-3" value="Start" style="ellipse;whiteSpace=wrap;html=1;" vertex="1" parent="1">
          <mxGeometry x="380" y="40" width="100" height="50" as="geometry" />
        </mxCell>
        <mxCell id="vT8C434_20c2T1mdYc_d-4" style="edgeStyle=orthogonalEdgeStyle;rounded=0;orthogonalLoop=1;jettySize=auto;html=1;entryX=0.5;entryY=0;entryDx=0;entryDy=0;" edge="1" parent="1" source="vT8C434_20c2T1mdYc_d-5" target="vT8C434_20c2T1mdYc_d-7">
          <mxGeometry relative="1" as="geometry" />
        </mxCell>
        <mxCell id="vT8C434_20c2T1mdYc_d-34" style="edgeStyle=orthogonalEdgeStyle;rounded=0;orthogonalLoop=1;jettySize=auto;html=1;entryX=0;entryY=0.5;entryDx=0;entryDy=0;" edge="1" parent="1" source="vT8C434_20c2T1mdYc_d-5" target="vT8C434_20c2T1mdYc_d-33">
          <mxGeometry relative="1" as="geometry" />
        </mxCell>
        <mxCell id="vT8C434_20c2T1mdYc_d-5" value="Area Code&lt;div&gt;Phone Number&lt;/div&gt;&lt;div&gt;Number of Messages&lt;/div&gt;" style="shape=parallelogram;perimeter=parallelogramPerimeter;whiteSpace=wrap;html=1;fixedSize=1;" vertex="1" parent="1">
          <mxGeometry x="350" y="110" width="160" height="50" as="geometry" />
        </mxCell>
        <mxCell id="vT8C434_20c2T1mdYc_d-6" style="edgeStyle=orthogonalEdgeStyle;rounded=0;orthogonalLoop=1;jettySize=auto;html=1;entryX=0.5;entryY=0;entryDx=0;entryDy=0;" edge="1" parent="1" source="vT8C434_20c2T1mdYc_d-7" target="vT8C434_20c2T1mdYc_d-10">
          <mxGeometry relative="1" as="geometry" />
        </mxCell>
        <mxCell id="vT8C434_20c2T1mdYc_d-7" value="Monthly Bill = $5.00" style="shape=process;whiteSpace=wrap;html=1;backgroundOutline=1;" vertex="1" parent="1">
          <mxGeometry x="350" y="190" width="160" height="60" as="geometry" />
        </mxCell>
        <mxCell id="vT8C434_20c2T1mdYc_d-8" value="No" style="edgeStyle=orthogonalEdgeStyle;rounded=0;orthogonalLoop=1;jettySize=auto;html=1;exitX=1;exitY=0.5;exitDx=0;exitDy=0;entryX=0;entryY=0.5;entryDx=0;entryDy=0;" edge="1" parent="1" source="vT8C434_20c2T1mdYc_d-10" target="vT8C434_20c2T1mdYc_d-15">
          <mxGeometry relative="1" as="geometry" />
        </mxCell>
        <mxCell id="vT8C434_20c2T1mdYc_d-9" value="Yes" style="edgeStyle=orthogonalEdgeStyle;rounded=0;orthogonalLoop=1;jettySize=auto;html=1;entryX=1;entryY=0.5;entryDx=0;entryDy=0;" edge="1" parent="1" source="vT8C434_20c2T1mdYc_d-10" target="vT8C434_20c2T1mdYc_d-18">
          <mxGeometry relative="1" as="geometry" />
        </mxCell>
        <mxCell id="vT8C434_20c2T1mdYc_d-10" value="Are Total&amp;nbsp;&lt;div&gt;Messages ≤ 100 ?&lt;/div&gt;" style="rhombus;whiteSpace=wrap;html=1;" vertex="1" parent="1">
          <mxGeometry x="350" y="280" width="160" height="80" as="geometry" />
        </mxCell>
        <mxCell id="vT8C434_20c2T1mdYc_d-11" value="No" style="edgeStyle=orthogonalEdgeStyle;rounded=0;orthogonalLoop=1;jettySize=auto;html=1;exitX=0.5;exitY=1;exitDx=0;exitDy=0;" edge="1" parent="1" source="vT8C434_20c2T1mdYc_d-13" target="vT8C434_20c2T1mdYc_d-20">
          <mxGeometry relative="1" as="geometry">
            <Array as="points">
              <mxPoint x="430" y="510" />
              <mxPoint x="540" y="510" />
              <mxPoint x="540" y="480" />
            </Array>
          </mxGeometry>
        </mxCell>
        <mxCell id="vT8C434_20c2T1mdYc_d-12" value="Yes" style="edgeStyle=orthogonalEdgeStyle;rounded=0;orthogonalLoop=1;jettySize=auto;html=1;entryX=0.5;entryY=0;entryDx=0;entryDy=0;" edge="1" parent="1" source="vT8C434_20c2T1mdYc_d-13" target="vT8C434_20c2T1mdYc_d-30">
          <mxGeometry relative="1" as="geometry" />
        </mxCell>
        <mxCell id="vT8C434_20c2T1mdYc_d-13" value="Are Total&amp;nbsp;&lt;div&gt;Messages ≤ 300?&lt;/div&gt;" style="rhombus;whiteSpace=wrap;html=1;" vertex="1" parent="1">
          <mxGeometry x="350" y="390" width="160" height="80" as="geometry" />
        </mxCell>
        <mxCell id="vT8C434_20c2T1mdYc_d-14" style="edgeStyle=orthogonalEdgeStyle;rounded=0;orthogonalLoop=1;jettySize=auto;html=1;exitX=0.5;exitY=1;exitDx=0;exitDy=0;entryX=1;entryY=0.5;entryDx=0;entryDy=0;" edge="1" parent="1" source="vT8C434_20c2T1mdYc_d-15" target="vT8C434_20c2T1mdYc_d-13">
          <mxGeometry relative="1" as="geometry" />
        </mxCell>
        <mxCell id="vT8C434_20c2T1mdYc_d-15" value="Go To Next Desicion" style="rounded=0;whiteSpace=wrap;html=1;" vertex="1" parent="1">
          <mxGeometry x="580" y="300" width="110" height="40" as="geometry" />
        </mxCell>
        <mxCell id="vT8C434_20c2T1mdYc_d-18" value="Extra charge =&amp;nbsp; $0" style="rounded=0;whiteSpace=wrap;html=1;" vertex="1" parent="1">
          <mxGeometry x="170" y="300" width="110" height="40" as="geometry" />
        </mxCell>
        <mxCell id="vT8C434_20c2T1mdYc_d-19" style="edgeStyle=orthogonalEdgeStyle;rounded=0;orthogonalLoop=1;jettySize=auto;html=1;entryX=0.5;entryY=0;entryDx=0;entryDy=0;" edge="1" parent="1" source="vT8C434_20c2T1mdYc_d-20" target="vT8C434_20c2T1mdYc_d-22">
          <mxGeometry relative="1" as="geometry" />
        </mxCell>
        <mxCell id="vT8C434_20c2T1mdYc_d-20" value="Extra Charge =&lt;div&gt;(200 * $0.03) +&lt;br&gt;&lt;div&gt;(Total Messages - 300) * $0.02&lt;/div&gt;&lt;/div&gt;" style="rounded=0;whiteSpace=wrap;html=1;" vertex="1" parent="1">
          <mxGeometry x="570" y="450" width="190" height="60" as="geometry" />
        </mxCell>
        <mxCell id="vT8C434_20c2T1mdYc_d-21" style="edgeStyle=orthogonalEdgeStyle;rounded=0;orthogonalLoop=1;jettySize=auto;html=1;entryX=1;entryY=0.5;entryDx=0;entryDy=0;" edge="1" parent="1" source="vT8C434_20c2T1mdYc_d-22" target="vT8C434_20c2T1mdYc_d-24">
          <mxGeometry relative="1" as="geometry" />
        </mxCell>
        <mxCell id="vT8C434_20c2T1mdYc_d-22" value="Total before Tax =&amp;nbsp;&lt;div&gt;Base Bill + Extra Charge&lt;/div&gt;" style="rounded=0;whiteSpace=wrap;html=1;" vertex="1" parent="1">
          <mxGeometry x="580" y="610" width="140" height="60" as="geometry" />
        </mxCell>
        <mxCell id="vT8C434_20c2T1mdYc_d-23" style="edgeStyle=orthogonalEdgeStyle;rounded=0;orthogonalLoop=1;jettySize=auto;html=1;" edge="1" parent="1" source="vT8C434_20c2T1mdYc_d-24" target="vT8C434_20c2T1mdYc_d-31">
          <mxGeometry relative="1" as="geometry" />
        </mxCell>
        <mxCell id="vT8C434_20c2T1mdYc_d-115" style="edgeStyle=orthogonalEdgeStyle;rounded=0;orthogonalLoop=1;jettySize=auto;html=1;entryX=0.5;entryY=0;entryDx=0;entryDy=0;" edge="1" parent="1" source="vT8C434_20c2T1mdYc_d-24" target="vT8C434_20c2T1mdYc_d-113">
          <mxGeometry relative="1" as="geometry" />
        </mxCell>
        <mxCell id="vT8C434_20c2T1mdYc_d-24" value="Total after Tax =&amp;nbsp;&lt;div&gt;Total Before Tax * 1.14&lt;/div&gt;" style="rounded=0;whiteSpace=wrap;html=1;" vertex="1" parent="1">
          <mxGeometry x="355" y="585" width="140" height="75" as="geometry" />
        </mxCell>
        <mxCell id="vT8C434_20c2T1mdYc_d-111" style="edgeStyle=orthogonalEdgeStyle;rounded=0;orthogonalLoop=1;jettySize=auto;html=1;" edge="1" parent="1" source="vT8C434_20c2T1mdYc_d-26">
          <mxGeometry relative="1" as="geometry">
            <mxPoint x="40" y="620" as="targetPoint" />
          </mxGeometry>
        </mxCell>
        <mxCell id="vT8C434_20c2T1mdYc_d-26" value="Total Before Tax= Base Bill + Extra Charge&lt;div&gt;Total After Tax = Total before Tax * 1.14&lt;/div&gt;" style="rounded=0;whiteSpace=wrap;html=1;direction=south;" vertex="1" parent="1">
          <mxGeometry x="65" y="350" width="150" height="80" as="geometry" />
        </mxCell>
        <mxCell id="vT8C434_20c2T1mdYc_d-27" style="edgeStyle=orthogonalEdgeStyle;rounded=0;orthogonalLoop=1;jettySize=auto;html=1;exitX=0;exitY=0.5;exitDx=0;exitDy=0;entryX=0.5;entryY=0;entryDx=0;entryDy=0;" edge="1" parent="1" source="vT8C434_20c2T1mdYc_d-28" target="vT8C434_20c2T1mdYc_d-31">
          <mxGeometry relative="1" as="geometry" />
        </mxCell>
        <mxCell id="vT8C434_20c2T1mdYc_d-28" value="Total Before Tax = Base Bill + Extra Charge.&amp;nbsp;&lt;div&gt;Total After Tax = Total Before Tax * 1.14&lt;/div&gt;" style="rounded=0;whiteSpace=wrap;html=1;" vertex="1" parent="1">
          <mxGeometry x="170" y="520" width="170" height="70" as="geometry" />
        </mxCell>
        <mxCell id="vT8C434_20c2T1mdYc_d-29" style="edgeStyle=orthogonalEdgeStyle;rounded=0;orthogonalLoop=1;jettySize=auto;html=1;entryX=0.5;entryY=0;entryDx=0;entryDy=0;" edge="1" parent="1" source="vT8C434_20c2T1mdYc_d-30" target="vT8C434_20c2T1mdYc_d-28">
          <mxGeometry relative="1" as="geometry" />
        </mxCell>
        <mxCell id="vT8C434_20c2T1mdYc_d-30" value="Extra Charge =&lt;div&gt;(Total messages - 100) * $0.03&lt;/div&gt;&lt;div&gt;&lt;br&gt;&lt;/div&gt;" style="rounded=0;whiteSpace=wrap;html=1;" vertex="1" parent="1">
          <mxGeometry x="170" y="450" width="170" height="50" as="geometry" />
        </mxCell>
        <mxCell id="vT8C434_20c2T1mdYc_d-31" value="&lt;br&gt;Display Area Code, Phone Number, and Total&lt;div&gt;&amp;nbsp;Before and After Tax&lt;/div&gt;" style="shape=parallelogram;perimeter=parallelogramPerimeter;whiteSpace=wrap;html=1;fixedSize=1;" vertex="1" parent="1">
          <mxGeometry x="10" y="620" width="190" height="60" as="geometry" />
        </mxCell>
        <mxCell id="vT8C434_20c2T1mdYc_d-32" style="edgeStyle=orthogonalEdgeStyle;rounded=0;orthogonalLoop=1;jettySize=auto;html=1;entryX=0.6;entryY=0;entryDx=0;entryDy=0;entryPerimeter=0;" edge="1" parent="1" source="vT8C434_20c2T1mdYc_d-31" target="vT8C434_20c2T1mdYc_d-1">
          <mxGeometry relative="1" as="geometry" />
        </mxCell>
        <mxCell id="vT8C434_20c2T1mdYc_d-38" style="edgeStyle=orthogonalEdgeStyle;rounded=0;orthogonalLoop=1;jettySize=auto;html=1;entryX=0;entryY=0.5;entryDx=0;entryDy=0;" edge="1" parent="1" source="vT8C434_20c2T1mdYc_d-33">
          <mxGeometry relative="1" as="geometry">
            <mxPoint x="760" y="140" as="targetPoint" />
          </mxGeometry>
        </mxCell>
        <mxCell id="vT8C434_20c2T1mdYc_d-40" value="Yes" style="edgeStyle=orthogonalEdgeStyle;rounded=0;orthogonalLoop=1;jettySize=auto;html=1;" edge="1" parent="1" source="vT8C434_20c2T1mdYc_d-33">
          <mxGeometry relative="1" as="geometry">
            <mxPoint x="760" y="140" as="targetPoint" />
          </mxGeometry>
        </mxCell>
        <mxCell id="vT8C434_20c2T1mdYc_d-52" value="No" style="edgeStyle=orthogonalEdgeStyle;rounded=0;orthogonalLoop=1;jettySize=auto;html=1;entryX=1;entryY=0.5;entryDx=0;entryDy=0;" edge="1" parent="1" source="vT8C434_20c2T1mdYc_d-33" target="vT8C434_20c2T1mdYc_d-7">
          <mxGeometry relative="1" as="geometry" />
        </mxCell>
        <mxCell id="vT8C434_20c2T1mdYc_d-33" value="Is Area Code = 000?" style="rhombus;whiteSpace=wrap;html=1;" vertex="1" parent="1">
          <mxGeometry x="550" y="100" width="160" height="80" as="geometry" />
        </mxCell>
        <mxCell id="vT8C434_20c2T1mdYc_d-45" value="Yes" style="edgeStyle=orthogonalEdgeStyle;rounded=0;orthogonalLoop=1;jettySize=auto;html=1;entryX=0;entryY=0.5;entryDx=0;entryDy=0;" edge="1" parent="1" source="vT8C434_20c2T1mdYc_d-42" target="vT8C434_20c2T1mdYc_d-43">
          <mxGeometry relative="1" as="geometry" />
        </mxCell>
        <mxCell id="vT8C434_20c2T1mdYc_d-47" value="No" style="edgeStyle=orthogonalEdgeStyle;rounded=0;orthogonalLoop=1;jettySize=auto;html=1;entryX=0.5;entryY=0;entryDx=0;entryDy=0;" edge="1" parent="1" source="vT8C434_20c2T1mdYc_d-42" target="vT8C434_20c2T1mdYc_d-44">
          <mxGeometry relative="1" as="geometry" />
        </mxCell>
        <mxCell id="vT8C434_20c2T1mdYc_d-42" value="Is Total after Tax &amp;gt; $10.00?" style="rhombus;whiteSpace=wrap;html=1;" vertex="1" parent="1">
          <mxGeometry x="350" y="890" width="160" height="80" as="geometry" />
        </mxCell>
        <mxCell id="vT8C434_20c2T1mdYc_d-110" style="edgeStyle=orthogonalEdgeStyle;rounded=0;orthogonalLoop=1;jettySize=auto;html=1;" edge="1" parent="1" source="vT8C434_20c2T1mdYc_d-43" target="vT8C434_20c2T1mdYc_d-48">
          <mxGeometry relative="1" as="geometry" />
        </mxCell>
        <mxCell id="vT8C434_20c2T1mdYc_d-43" value="Display Information" style="rounded=0;whiteSpace=wrap;html=1;" vertex="1" parent="1">
          <mxGeometry x="610" y="910" width="110" height="40" as="geometry" />
        </mxCell>
        <mxCell id="vT8C434_20c2T1mdYc_d-50" style="edgeStyle=orthogonalEdgeStyle;rounded=0;orthogonalLoop=1;jettySize=auto;html=1;entryX=0;entryY=0.5;entryDx=0;entryDy=0;" edge="1" parent="1" source="vT8C434_20c2T1mdYc_d-44" target="vT8C434_20c2T1mdYc_d-48">
          <mxGeometry relative="1" as="geometry" />
        </mxCell>
        <mxCell id="vT8C434_20c2T1mdYc_d-44" value="Skip Display" style="rounded=0;whiteSpace=wrap;html=1;" vertex="1" parent="1">
          <mxGeometry x="470" y="1000" width="110" height="40" as="geometry" />
        </mxCell>
        <mxCell id="vT8C434_20c2T1mdYc_d-48" value="Next Customer" style="shape=parallelogram;perimeter=parallelogramPerimeter;whiteSpace=wrap;html=1;fixedSize=1;" vertex="1" parent="1">
          <mxGeometry x="670" y="1000" width="120" height="40" as="geometry" />
        </mxCell>
        <mxCell id="vT8C434_20c2T1mdYc_d-106" value="This flowchart uses a sentinel - controlled loop to process multiple customers.&lt;div&gt;The loop continues until the user enters area code 000, which ends the program.&lt;/div&gt;&lt;div&gt;The customer&#39;s bill is calculated and displayed before looping back to the input step.&lt;/div&gt;" style="shape=note;whiteSpace=wrap;html=1;backgroundOutline=1;darkOpacity=0.05;" vertex="1" parent="1">
          <mxGeometry x="40" y="880" width="240" height="170" as="geometry" />
        </mxCell>
        <mxCell id="vT8C434_20c2T1mdYc_d-112" style="edgeStyle=orthogonalEdgeStyle;rounded=0;orthogonalLoop=1;jettySize=auto;html=1;exitX=0;exitY=0.5;exitDx=0;exitDy=0;entryX=0;entryY=0.68;entryDx=0;entryDy=0;entryPerimeter=0;" edge="1" parent="1" source="vT8C434_20c2T1mdYc_d-18" target="vT8C434_20c2T1mdYc_d-26">
          <mxGeometry relative="1" as="geometry" />
        </mxCell>
        <mxCell id="vT8C434_20c2T1mdYc_d-117" value="Yes" style="edgeStyle=orthogonalEdgeStyle;rounded=0;orthogonalLoop=1;jettySize=auto;html=1;entryX=0;entryY=0.5;entryDx=0;entryDy=0;" edge="1" parent="1" source="vT8C434_20c2T1mdYc_d-113" target="vT8C434_20c2T1mdYc_d-116">
          <mxGeometry relative="1" as="geometry" />
        </mxCell>
        <mxCell id="vT8C434_20c2T1mdYc_d-119" value="No" style="edgeStyle=orthogonalEdgeStyle;rounded=0;orthogonalLoop=1;jettySize=auto;html=1;entryX=1;entryY=0.5;entryDx=0;entryDy=0;" edge="1" parent="1" source="vT8C434_20c2T1mdYc_d-113" target="vT8C434_20c2T1mdYc_d-118">
          <mxGeometry relative="1" as="geometry" />
        </mxCell>
        <mxCell id="vT8C434_20c2T1mdYc_d-125" style="edgeStyle=orthogonalEdgeStyle;rounded=0;orthogonalLoop=1;jettySize=auto;html=1;entryX=0.5;entryY=0;entryDx=0;entryDy=0;" edge="1" parent="1" source="vT8C434_20c2T1mdYc_d-113" target="vT8C434_20c2T1mdYc_d-42">
          <mxGeometry relative="1" as="geometry" />
        </mxCell>
        <mxCell id="vT8C434_20c2T1mdYc_d-113" value="Is Area Code = to 765?" style="rhombus;whiteSpace=wrap;html=1;" vertex="1" parent="1">
          <mxGeometry x="390" y="700" width="160" height="80" as="geometry" />
        </mxCell>
        <mxCell id="vT8C434_20c2T1mdYc_d-116" value="Next Decision" style="rounded=0;whiteSpace=wrap;html=1;" vertex="1" parent="1">
          <mxGeometry x="620" y="720" width="110" height="40" as="geometry" />
        </mxCell>
        <mxCell id="vT8C434_20c2T1mdYc_d-118" value="Skip Display" style="rounded=0;whiteSpace=wrap;html=1;" vertex="1" parent="1">
          <mxGeometry x="240" y="690" width="110" height="40" as="geometry" />
        </mxCell>
        <mxCell id="vT8C434_20c2T1mdYc_d-124" value="End" style="ellipse;whiteSpace=wrap;html=1;" vertex="1" parent="1">
          <mxGeometry x="760" y="115" width="80" height="50" as="geometry" />
        </mxCell>
      </root>
    </mxGraphModel>
  </diagram>
</mxfile>
